<svg width="223" height="107" viewBox="0 0 223 107" fill="none" xmlns="http://www.w3.org/2000/svg">
<rect x="5" y="1" width="212.03" height="96.39" rx="8" fill="white"/>
<g filter="url(#filter0_dd_5_75)">
<rect x="5" y="1" width="212.03" height="96.39" rx="8" fill="white" fill-opacity="0.01" shape-rendering="crispEdges"/>
</g>
<g filter="url(#filter1_d_5_75)">
<rect x="25.19" y="29.7202" width="48" height="48" rx="12" transform="rotate(-9.99999 25.19 29.7202)" fill="url(#paint0_linear_5_75)" shape-rendering="crispEdges"/>
<path d="M44.9929 51.1879C44.6067 51.1892 44.2542 50.968 44.0875 50.6196C43.9208 50.2712 43.9696 49.8579 44.2129 49.5579L54.1129 39.3579C54.2659 39.1814 54.5207 39.1343 54.7267 39.2444C54.9326 39.3546 55.0349 39.5927 54.9729 39.8179L53.0529 45.8379C52.938 46.1455 52.9814 46.4899 53.169 46.7594C53.3567 47.0288 53.6646 47.189 53.9929 47.1879H60.9929C61.3792 47.1866 61.7317 47.4079 61.8984 47.7563C62.0651 48.1047 62.0163 48.518 61.7729 48.8179L51.8729 59.0179C51.72 59.1945 51.4652 59.2416 51.2592 59.1314C51.0532 59.0213 50.951 58.7832 51.0129 58.5579L52.9329 52.5379C53.0479 52.2304 53.0045 51.886 52.8169 51.6165C52.6292 51.347 52.3213 51.1869 51.9929 51.1879H44.9929" stroke="white" stroke-width="2" stroke-linecap="round" stroke-linejoin="round"/>
<rect x="59.1385" y="20.6913" width="16.0042" height="15.9943" rx="7.99715" transform="rotate(-9.99999 59.1385 20.6913)" fill="#22C55E" stroke="#F7FAFC" stroke-width="2"/>
</g>
<path d="M93.5781 28.637V43.1877H90.1344V28.637H93.5781ZM97.8473 43.1877V28.637H101.638L105.693 35.2123C105.958 35.6462 106.216 36.0964 106.467 36.5631C106.718 37.0298 106.967 37.5465 107.215 38.1133C107.462 38.6801 107.712 39.3302 107.964 40.0635H107.641C107.602 39.5283 107.561 38.936 107.518 38.2864C107.474 37.6367 107.437 37.0043 107.406 36.3891C107.375 35.7738 107.359 35.2546 107.359 34.8315V28.637H110.892V43.1877H107.096L103.374 37.1628C103.039 36.6104 102.737 36.0863 102.469 35.5903C102.2 35.0943 101.93 34.5569 101.66 33.978C101.389 33.3991 101.072 32.7193 100.709 31.9385H101.103C101.15 32.6315 101.196 33.3087 101.239 33.9702C101.282 34.6316 101.317 35.2372 101.343 35.787C101.369 36.3367 101.382 36.7938 101.382 37.1581V43.1877H97.8473ZM120.775 43.3823C119.564 43.3823 118.508 43.1994 117.608 42.8336C116.708 42.4679 116.008 41.9151 115.507 41.1752C115.007 40.4354 114.747 39.5052 114.728 38.3846H118.035C118.067 38.8523 118.197 39.245 118.424 39.5627C118.652 39.8804 118.963 40.1194 119.357 40.2795C119.751 40.4397 120.209 40.5198 120.731 40.5198C121.21 40.5198 121.622 40.4544 121.965 40.3237C122.309 40.1929 122.573 40.0102 122.758 39.7754C122.942 39.5407 123.035 39.27 123.035 38.9635C123.035 38.6828 122.95 38.4442 122.78 38.2477C122.611 38.0512 122.352 37.8784 122.005 37.7292C121.658 37.5799 121.217 37.4461 120.681 37.3276L119.146 36.9706C117.89 36.6831 116.903 36.214 116.185 35.5633C115.467 34.9127 115.108 34.0388 115.108 32.9417C115.108 32.0422 115.352 31.2551 115.839 30.5805C116.326 29.9059 116.996 29.3808 117.847 29.0051C118.699 28.6295 119.675 28.4417 120.776 28.4417C121.901 28.4417 122.878 28.632 123.705 29.0125C124.532 29.3931 125.174 29.9243 125.63 30.6059C126.086 31.2876 126.32 32.0779 126.331 32.9768H123.015C122.97 32.4453 122.757 32.0329 122.374 31.7395C121.992 31.4462 121.455 31.2995 120.762 31.2995C120.305 31.2995 119.921 31.36 119.61 31.4809C119.299 31.6019 119.065 31.7693 118.909 31.9831C118.752 32.1969 118.674 32.4401 118.674 32.7127C118.674 33.0078 118.762 33.258 118.94 33.4633C119.117 33.6687 119.368 33.8403 119.692 33.9782C120.016 34.1161 120.393 34.2338 120.824 34.3315L122.079 34.6205C122.781 34.7742 123.408 34.9793 123.959 35.2358C124.51 35.4923 124.977 35.7991 125.36 36.1563C125.742 36.5135 126.032 36.926 126.23 37.394C126.427 37.862 126.526 38.3875 126.526 38.9706C126.526 39.8885 126.297 40.6777 125.839 41.3379C125.381 41.9982 124.724 42.504 123.867 42.8553C123.01 43.2066 121.979 43.3823 120.775 43.3823ZM129.698 31.4503V28.637H141.941V31.4503H137.544V43.1877H134.1V31.4503H129.698ZM143.245 43.1877L148.097 28.637H152.71L157.713 43.1877H153.845L151.82 36.8261C151.498 35.7677 151.185 34.6419 150.882 33.4485C150.58 32.2551 150.277 31.0152 149.973 29.7288H150.74C150.448 31.0183 150.165 32.2614 149.89 33.4579C149.616 34.6544 149.325 35.7771 149.017 36.8261L147.073 43.1877H143.245ZM146.539 40.0901V37.4596H154.418V40.0901H146.539ZM161.306 43.1877V28.637H165.097L169.152 35.2123C169.417 35.6462 169.675 36.0964 169.926 36.5631C170.177 37.0298 170.426 37.5465 170.674 38.1133C170.921 38.6801 171.171 39.3302 171.423 40.0635H171.1C171.061 39.5283 171.02 38.936 170.977 38.2864C170.933 37.6367 170.896 37.0043 170.865 36.3891C170.834 35.7738 170.818 35.2546 170.818 34.8315V28.637H174.351V43.1877H170.555L166.833 37.1628C166.498 36.6104 166.196 36.0863 165.928 35.5903C165.659 35.0943 165.389 34.5569 165.119 33.978C164.848 33.3991 164.531 32.7193 164.168 31.9385H164.562C164.609 32.6315 164.655 33.3087 164.698 33.9702C164.741 34.6316 164.776 35.2372 164.802 35.787C164.828 36.3367 164.841 36.7938 164.841 37.1581V43.1877H161.306ZM178.13 31.4503V28.637H190.373V31.4503H185.975V43.1877H182.532V31.4503H178.13Z" fill="#0A84FF"/>
<path d="M90.3612 68.1877V50.7268H97.5134C98.8253 50.7268 99.9563 50.9808 100.906 51.4888C101.857 51.9967 102.589 52.7043 103.104 53.6115C103.619 54.5187 103.876 55.569 103.876 56.7624C103.876 57.9618 103.614 59.0086 103.091 59.9028C102.567 60.7971 101.82 61.4927 100.85 61.9897C99.88 62.4867 98.7272 62.7353 97.3916 62.7353H92.9563V59.469H96.6359C97.2847 59.469 97.828 59.3553 98.2658 59.128C98.7036 58.9006 99.0331 58.5843 99.2544 58.179C99.4756 57.7737 99.5862 57.3015 99.5862 56.7624C99.5862 56.2115 99.4756 55.7358 99.2544 55.3353C99.0331 54.9349 98.7031 54.6259 98.2644 54.4084C97.8256 54.1909 97.2809 54.0821 96.6303 54.0821H94.4938V68.1877H90.3612ZM108.723 68.4212C107.889 68.4212 107.146 68.2783 106.494 67.9925C105.842 67.7067 105.331 67.2779 104.962 66.706C104.594 66.1342 104.409 65.4156 104.409 64.5502C104.409 63.824 104.537 63.2117 104.792 62.7132C105.048 62.2148 105.401 61.81 105.853 61.4989C106.304 61.1878 106.823 60.9495 107.41 60.7841C107.997 60.6186 108.622 60.5087 109.284 60.4543C110.03 60.3884 110.63 60.3191 111.083 60.2466C111.537 60.1741 111.868 60.0641 112.076 59.9164C112.285 59.7688 112.389 59.5615 112.389 59.2946V59.2421C112.389 58.9387 112.319 58.6821 112.178 58.4724C112.037 58.2628 111.835 58.1024 111.571 57.9913C111.308 57.8802 110.987 57.8246 110.609 57.8246C110.233 57.8246 109.9 57.8807 109.609 57.9929C109.318 58.1051 109.079 58.2617 108.89 58.4626C108.702 58.6635 108.57 58.9015 108.495 59.1765L104.784 58.6956C104.96 57.9462 105.3 57.289 105.805 56.724C106.31 56.159 106.97 55.7174 107.786 55.3993C108.601 55.0812 109.555 54.9221 110.648 54.9221C111.46 54.9221 112.219 55.0179 112.926 55.2095C113.633 55.401 114.253 55.6827 114.784 56.0546C115.315 56.4265 115.73 56.8835 116.029 57.4255C116.327 57.9675 116.476 58.5899 116.476 59.2927V68.1877H112.629V66.3531H112.524C112.287 66.8002 111.988 67.177 111.627 67.4834C111.266 67.7899 110.845 68.0227 110.363 68.1821C109.881 68.3415 109.334 68.4212 108.723 68.4212ZM109.968 65.7118C110.428 65.7118 110.844 65.6188 111.214 65.4329C111.583 65.247 111.878 64.99 112.097 64.662C112.316 64.3341 112.425 63.9549 112.425 63.5246V62.2693C112.309 62.3293 112.163 62.387 111.987 62.4423C111.811 62.4976 111.617 62.5476 111.407 62.5923C111.196 62.637 110.985 62.6763 110.774 62.7104C110.563 62.7445 110.362 62.7762 110.17 62.8056C109.769 62.8621 109.428 62.9577 109.147 63.0922C108.866 63.2267 108.652 63.3989 108.505 63.6088C108.358 63.8186 108.285 64.0696 108.285 64.3618C108.285 64.6546 108.358 64.9014 108.503 65.1022C108.648 65.303 108.847 65.4548 109.099 65.5576C109.351 65.6604 109.64 65.7118 109.968 65.7118ZM118.198 72.7824L119.111 69.7965L119.628 69.9352C120.123 70.0624 120.555 70.0977 120.924 70.0409C121.293 69.9842 121.577 69.846 121.775 69.6263C121.973 69.4066 122.062 69.1179 122.042 68.7601L122.034 68.2135L117.145 55.0862H121.458L123.419 61.493C123.68 62.3709 123.887 63.2512 124.04 64.1342C124.192 65.0172 124.373 65.9643 124.582 66.9755H123.746C123.955 65.9643 124.164 65.0137 124.374 64.1239C124.584 63.2341 124.828 62.3571 125.105 61.493L127.205 55.0862H131.461L125.974 69.5659C125.709 70.273 125.359 70.8988 124.926 71.443C124.492 71.9872 123.942 72.4127 123.275 72.7196C122.607 73.0265 121.781 73.1799 120.796 73.1799C120.296 73.1799 119.814 73.1437 119.351 73.0712C118.888 72.9987 118.503 72.9024 118.198 72.7824Z" fill="#0F1724"/>
<defs>
<filter id="filter0_dd_5_75" x="0" y="0" width="222.03" height="106.39" filterUnits="userSpaceOnUse" color-interpolation-filters="sRGB">
<feFlood flood-opacity="0" result="BackgroundImageFix"/>
<feColorMatrix in="SourceAlpha" type="matrix" values="0 0 0 0 0 0 0 0 0 0 0 0 0 0 0 0 0 0 127 0" result="hardAlpha"/>
<feMorphology radius="2" operator="erode" in="SourceAlpha" result="effect1_dropShadow_5_75"/>
<feOffset dy="2"/>
<feGaussianBlur stdDeviation="2"/>
<feComposite in2="hardAlpha" operator="out"/>
<feColorMatrix type="matrix" values="0 0 0 0 0 0 0 0 0 0 0 0 0 0 0 0 0 0 0.1 0"/>
<feBlend mode="normal" in2="BackgroundImageFix" result="effect1_dropShadow_5_75"/>
<feColorMatrix in="SourceAlpha" type="matrix" values="0 0 0 0 0 0 0 0 0 0 0 0 0 0 0 0 0 0 127 0" result="hardAlpha"/>
<feMorphology radius="1" operator="erode" in="SourceAlpha" result="effect2_dropShadow_5_75"/>
<feOffset dy="4"/>
<feGaussianBlur stdDeviation="3"/>
<feComposite in2="hardAlpha" operator="out"/>
<feColorMatrix type="matrix" values="0 0 0 0 0 0 0 0 0 0 0 0 0 0 0 0 0 0 0.1 0"/>
<feBlend mode="normal" in2="effect1_dropShadow_5_75" result="effect2_dropShadow_5_75"/>
<feBlend mode="normal" in="SourceGraphic" in2="effect2_dropShadow_5_75" result="shape"/>
</filter>
<filter id="filter1_d_5_75" x="13.19" y="10.1787" width="79.6059" height="82.8123" filterUnits="userSpaceOnUse" color-interpolation-filters="sRGB">
<feFlood flood-opacity="0" result="BackgroundImageFix"/>
<feColorMatrix in="SourceAlpha" type="matrix" values="0 0 0 0 0 0 0 0 0 0 0 0 0 0 0 0 0 0 127 0" result="hardAlpha"/>
<feOffset dy="4"/>
<feGaussianBlur stdDeviation="6"/>
<feComposite in2="hardAlpha" operator="out"/>
<feColorMatrix type="matrix" values="0 0 0 0 0.231373 0 0 0 0 0.509804 0 0 0 0 0.964706 0 0 0 0.3 0"/>
<feBlend mode="normal" in2="BackgroundImageFix" result="effect1_dropShadow_5_75"/>
<feBlend mode="normal" in="SourceGraphic" in2="effect1_dropShadow_5_75" result="shape"/>
</filter>
<linearGradient id="paint0_linear_5_75" x1="25.19" y1="29.7202" x2="73.19" y2="77.7202" gradientUnits="userSpaceOnUse">
<stop stop-color="#0A84FF"/>
<stop offset="1" stop-color="#2563EB"/>
</linearGradient>
</defs>
</svg>
